<svg id="Layer_1" data-name="Layer 1" xmlns="http://www.w3.org/2000/svg" width="42.6667" height="41.616" viewBox="0 0 42.6667 41.616"><defs><style>.cls-1{fill:#57ceb2;}</style></defs><path class="cls-1" d="M32,10.6667a21.3337,21.3337,0,0,1,6.6142,41.616l.0062-.02s-1.44-.6747-1.41-1.8791c.0337-1.3253,0-4.4187,0-5.5538A5.455,5.455,0,0,0,35.9769,41.5s9.6747.1084,9.6747-10.2143A8.8547,8.8547,0,0,0,43.57,25.23s1.0933-4.2524-.3787-6.0551c-1.65-.1778-4.6044,1.5769-5.8667,2.3973a15.273,15.273,0,0,0-5.3253-.8195,15.2668,15.2668,0,0,0-5.3253.8195c-1.2614-.8195-4.2169-2.5751-5.8667-2.3973-1.472,1.8036-.3787,6.0551-.3787,6.0551a8.8577,8.8577,0,0,0-2.0817,6.0551c0,10.3227,9.6746,10.2143,9.6746,10.2143A5.58,5.58,0,0,0,26.8338,44.22a8.52,8.52,0,0,1-2.4711.512c-2.1,0-3.6969-2.0408-4.2818-2.9848a3.6694,3.6694,0,0,0-2.8631-1.7129c-.7262,0-1.0809.3635-1.0809.7786s1.0187.7049,1.6907,1.4747c1.4168,1.6231,1.3911,5.2738,6.44,5.2738a25.1925,25.1925,0,0,0,2.5093-.248c-.0053,1.1493-.0062,2.3618.0115,3.07.03,1.2044-1.41,1.8791-1.41,1.8791l.0062.02A21.3338,21.3338,0,0,1,32,10.6667Z" transform="translate(-10.6667 -10.6667)"/></svg>