<svg id="Layer_1" data-name="Layer 1" xmlns="http://www.w3.org/2000/svg" width="63.7486" height="73.4042" viewBox="0 0 63.7486 73.4042"><defs><style>.cls-1{fill:none;stroke:#58e8c8;stroke-miterlimit:10;stroke-width:3px;}.cls-2{isolation:isolate;}.cls-3{fill:#58e8c8;}</style></defs><polygon class="cls-1" points="31.704 71.672 1.504 54.032 1.684 19.072 32.054 1.732 62.244 19.372 62.074 54.342 31.704 71.672"/><g class="cls-2"><path class="cls-3" d="M35.44,38.2686H25.6836L23.4277,44.04a9.2371,9.2371,0,0,0-.5859,2.1094,1.056,1.056,0,0,0,.7178,1.0547,8.7612,8.7612,0,0,0,2.5634.3809L26.0352,48.64q-1.0841,0-2.4317-.0292t-2.666-.0293q-1.084,0-2.2412.0293t-2.2412.0292l-.0586-.996a11.0119,11.0119,0,0,0,1.875-.2784,2.8823,2.8823,0,0,0,1.2744-.7031,5.5747,5.5747,0,0,0,1.0254-1.4062q.4834-.8935,1.1279-2.3877l8.4082-19.834q.3516-.879.6006-1.5381t.542-1.4209l1.8457-.2344q.3222,1.4063.6885,2.5781t.6885,2.1387l6.5918,19.1016a19.1552,19.1552,0,0,0,.791,2.0215,3.3393,3.3393,0,0,0,.82,1.1279,2.6044,2.6044,0,0,0,1.1865.542,15.6361,15.6361,0,0,0,1.86.2344L45.6348,48.64q-1.23,0-2.71-.0292t-2.9736-.0293q-1.23,0-2.49.0293t-2.49.0292l-.0879-.996a8.6938,8.6938,0,0,0,2.3438-.3956,1.03,1.03,0,0,0,.7031-1.04,2.9017,2.9017,0,0,0-.1172-.7471q-.1171-.4248-.293-.9521Zm-9.0821-1.6993h8.5254L30.957,24.9678Z" transform="translate(0.0044 0.0022)"/></g></svg>